<?xml version="1.0" encoding="UTF-8" standalone="no"?>
<svg
   version="1.1"
   id="Layer_1"
   x="0px"
   y="0px"
   width="1113px"
   height="1113px"
   viewBox="0 0 1113 1113"
   enable-background="new 0 0 1113 1113"
   xml:space="preserve"
   sodipodi:docname="qrcode.svg"
   inkscape:version="1.2.1 (9c6d41e410, 2022-07-14)"
   xmlns:inkscape="http://www.inkscape.org/namespaces/inkscape"
   xmlns:sodipodi="http://sodipodi.sourceforge.net/DTD/sodipodi-0.dtd"
   xmlns="http://www.w3.org/2000/svg"
   xmlns:svg="http://www.w3.org/2000/svg"><defs
   id="defs7385">
</defs><sodipodi:namedview
   id="namedview7383"
   pagecolor="#ffffff"
   bordercolor="#000000"
   borderopacity="0.25"
   inkscape:showpageshadow="2"
   inkscape:pageopacity="0.0"
   inkscape:pagecheckerboard="0"
   inkscape:deskcolor="#d1d1d1"
   showgrid="false"
   inkscape:zoom="0.49923374"
   inkscape:cx="1020.564"
   inkscape:cy="374.57404"
   inkscape:window-width="1904"
   inkscape:window-height="971"
   inkscape:window-x="8"
   inkscape:window-y="64"
   inkscape:window-maximized="0"
   inkscape:current-layer="Layer_1" />
<rect
   x="0"
   y="0"
   width="1113"
   height="1113"
   fill="rgb(29,30,32)"
   id="rect2" /><path
   id="path4"
   style="fill:#ffffff;stroke-width:0"
   d="M 252 42 C 240.40218 42.000042 231 51.401892 231 63 L 231 84 L 231 105 L 231 115.5 C 231 121.29867 235.70104 126 241.5 126 C 247.29867 126 252 121.29867 252 115.5 L 252 105 L 273 105 C 284.59794 105 294 95.59794 294 84 C 305.59794 84 315 74.59794 315 63 L 336 63 L 336 84 C 324.40218 84.000042 315 93.401892 315 105 L 315 126 L 304.5 126 C 298.69902 126 294 130.70247 294 136.5 C 294 142.29686 298.69902 147 304.5 147 L 315 147 C 315.00004 158.59794 324.40185 168 336 168 L 336 178.5 C 336 184.29867 340.70104 189 346.5 189 C 352.29867 189 357 184.29867 357 178.5 L 357 168 C 357 156.40185 347.59794 147 336 147 L 336 126 L 336 105 L 357 105 C 357.00004 116.59794 366.40185 126 378 126 L 378 136.5 C 378 142.29867 382.70104 147 388.5 147 C 394.29867 147 399 142.29867 399 136.5 L 399 126 L 399 105 L 399 84 L 420 84 L 420 94.5 C 420 100.29867 424.70104 105 430.5 105 C 436.29867 105 441 100.29867 441 94.5 L 441 84 L 462 84 L 483 84 L 504 84 L 525 84 L 546 84 C 546.00004 95.59794 555.40185 105 567 105 L 588 105 L 588 126 L 567 126 L 546 126 C 546 114.40185 536.59794 105 525 105 L 504 105 L 493.5 105 C 487.69902 105 483 109.70247 483 115.5 C 483 121.29686 487.69902 126 493.5 126 L 504 126 L 504 147 L 504 168 L 504 189 L 504 210 L 504 231 L 493.5 231 C 487.69902 231 483 235.70247 483 241.5 C 483 247.29686 487.69902 252 493.5 252 L 504 252 L 504 262.5 C 504 268.29867 508.70104 273 514.5 273 C 520.29867 273 525 268.29867 525 262.5 L 525 252 L 525 231 L 546 231 L 567 231 L 588 231 L 609 231 L 609 241.5 C 609 247.29867 613.70104 252 619.5 252 C 625.29867 252 630 247.29867 630 241.5 L 630 231 L 651 231 L 651 252 L 651 273 L 630 273 L 609 273 L 588 273 L 567 273 L 567 262.5 C 567 256.70108 562.29892 252 556.5 252 C 550.70129 252 546.00025 256.70137 546 262.5 L 546 273 C 534.40218 273.00004 525 282.40189 525 294 L 525 315 L 525 336 C 525.00004 347.59794 534.40185 357 546 357 L 546 378 C 534.40218 378.00004 525 387.40189 525 399 L 525 420 L 525 430.5 C 525 436.29867 529.70104 441 535.5 441 C 541.29867 441 546 436.29867 546 430.5 L 546 420 C 557.59794 420 567 410.59794 567 399 L 567 378 L 567 357 L 588 357 L 598.5 357 C 604.29867 357 609 352.29867 609 346.5 C 609 340.70104 604.29867 336 598.5 336 L 588 336 L 567 336 L 546 336 L 546 315 L 567 315 C 578.59794 315 588 305.59794 588 294 L 609 294 L 609 315 L 609 325.5 C 609 331.29867 613.70104 336 619.5 336 C 625.29867 336 630 331.29867 630 325.5 L 630 315 C 641.59794 315 651 305.59794 651 294 C 662.59794 294 672 284.59794 672 273 L 672 252 L 672 231 L 693 231 L 693 252 L 693 273 L 693 283.5 C 693 289.29867 697.70104 294 703.5 294 C 709.29867 294 714 289.29867 714 283.5 L 714 273 L 735 273 L 756 273 C 756.00004 284.59794 765.40185 294 777 294 L 777 315 C 765.40218 315.00004 756 324.40189 756 336 L 745.5 336 C 739.69902 336 735 340.70247 735 346.5 C 735 352.29686 739.69902 357 745.5 357 L 756 357 L 756 378 L 756 399 L 756 420 C 756.00004 431.59794 765.40185 441 777 441 L 777 451.5 C 777 457.29867 781.70104 462 787.5 462 C 793.29867 462 798 457.29867 798 451.5 L 798 441 C 798 429.40185 788.59794 420 777 420 L 777 399 C 788.59794 399 798 389.59794 798 378 L 798 357 L 819 357 L 819 378 L 819 388.5 C 819 394.29867 823.70104 399 829.5 399 C 835.29867 399 840 394.29867 840 388.5 L 840 378 L 840 357 L 840 336 C 840 324.40185 830.59794 315 819 315 C 819 303.40185 809.59794 294 798 294 L 798 273 C 798 261.40185 788.59794 252 777 252 L 756 252 L 735 252 C 735 240.40185 725.59794 231 714 231 C 714 219.40185 704.59794 210 693 210 L 693 189 L 693 168 L 693 147 L 693 126 C 693 114.40185 683.59794 105 672 105 L 661.5 105 C 655.69902 105 651 109.70247 651 115.5 C 651 121.29686 655.69902 126 661.5 126 L 672 126 L 672 147 L 661.5 147 C 655.69902 147 651 151.70247 651 157.5 C 651 163.29686 655.69902 168 661.5 168 L 672 168 L 672 189 L 672 210 L 651 210 L 630 210 L 609 210 L 609 189 L 609 168 L 619.5 168 C 625.29867 168 630 163.29867 630 157.5 C 630 151.70104 625.29867 147 619.5 147 L 609 147 L 609 126 L 609 105 C 609 93.40185 599.59794 84 588 84 C 588 72.40185 578.59794 63 567 63 L 546 63 C 546 51.40185 536.59794 42 525 42 L 504 42 L 483 42 L 462 42 L 441 42 L 420 42 C 408.40218 42.000042 399 51.401892 399 63 L 378 63 C 378 51.40185 368.59794 42 357 42 L 336 42 L 315 42 C 303.40218 42.000042 294 51.401892 294 63 L 273 63 C 273 51.40185 263.59794 42 252 42 z M 598.5 42 C 592.69902 42 588 46.702458 588 52.5 C 588 58.29687 592.69902 63 598.5 63 L 609 63 C 609.00004 74.59794 618.40185 84 630 84 C 641.59794 84 651 74.59794 651 63 C 651 51.40185 641.59794 42 630 42 L 609 42 L 598.5 42 z M 682.5 42 C 676.69902 42 672 46.702458 672 52.5 C 672 58.29687 676.69902 63 682.5 63 L 693 63 L 714 63 L 724.5 63 C 730.29867 63 735 58.298676 735 52.5 C 735 46.70103 730.29867 42 724.5 42 L 714 42 L 693 42 L 682.5 42 z M 777 42 C 765.40218 42.000042 756 51.401892 756 63 L 756 84 L 756 105 L 756 115.5 C 756 121.29867 760.70104 126 766.5 126 C 772.29867 126 777 121.29867 777 115.5 L 777 105 L 798 105 L 808.5 105 C 814.29867 105 819 100.29867 819 94.5 C 819 88.70103 814.29867 84 808.5 84 L 798 84 L 798 63 L 819 63 L 829.5 63 C 835.29867 63 840 58.298676 840 52.5 C 840 46.70103 835.29867 42 829.5 42 L 819 42 L 798 42 L 777 42 z M 892.5 42 C 886.70129 42 882.00025 46.701366 882 52.5 L 882 63 L 861 63 L 850.5 63 C 844.69902 63 840 67.702458 840 73.5 C 840 79.29687 844.69902 84 850.5 84 L 861 84 L 861 105 L 861 115.5 C 861 121.29867 865.70104 126 871.5 126 C 877.29867 126 882 121.29867 882 115.5 L 882 105 C 893.59794 105 903 95.59794 903 84 L 903 63 L 903 52.5 C 903 46.701072 898.29892 42 892.5 42 z M 703.5 84 C 697.70108 84 693 88.701072 693 94.5 C 693 100.29921 697.70108 105 703.5 105 C 709.29921 105 714 100.29921 714 94.5 C 714 88.701072 709.29921 84 703.5 84 z M 451.5 126 C 445.69902 126 441 130.70247 441 136.5 C 441 142.29686 445.69902 147 451.5 147 L 462 147 L 462 168 L 462 178.5 C 462 184.29867 466.70104 189 472.5 189 C 478.29867 189 483 184.29867 483 178.5 L 483 168 L 483 147 C 483 135.40185 473.59794 126 462 126 L 451.5 126 z M 640.5 126 C 634.70108 126 630 130.70108 630 136.5 C 630 142.29921 634.70108 147 640.5 147 C 646.29921 147 651 142.29921 651 136.5 C 651 130.70108 646.29921 126 640.5 126 z M 735 126 C 723.40218 126.00004 714 135.40189 714 147 L 714 168 L 714 178.5 C 714 184.29867 718.70104 189 724.5 189 C 730.29867 189 735 184.29867 735 178.5 L 735 168 C 746.59794 168 756 158.59794 756 147 C 756 135.40185 746.59794 126 735 126 z M 787.5 126 C 781.69902 126 777 130.70247 777 136.5 C 777 142.29686 781.69902 147 787.5 147 L 798 147 L 798 168 L 798 189 L 798 210 L 798 231 L 798 241.5 C 798 247.29867 802.70104 252 808.5 252 C 814.29867 252 819 247.29867 819 241.5 L 819 231 L 840 231 L 861 231 L 882 231 L 903 231 L 903 252 L 903 262.5 C 903 268.29867 907.70104 273 913.5 273 C 919.29867 273 924 268.29867 924 262.5 L 924 252 L 924 231 C 924 219.40185 914.59794 210 903 210 L 903 189 L 903 178.5 C 903 172.70108 898.29892 168 892.5 168 C 886.70129 168 882.00025 172.70137 882 178.5 L 882 189 C 870.40218 189.00004 861 198.40189 861 210 L 840 210 C 840 198.40185 830.59794 189 819 189 L 819 168 L 840 168 L 840 178.5 C 840 184.29867 844.70104 189 850.5 189 C 856.29867 189 861 184.29867 861 178.5 L 861 168 C 861 156.40185 851.59794 147 840 147 C 840 135.40185 830.59794 126 819 126 L 798 126 L 787.5 126 z M 220.5 147 C 214.70129 147 210.00025 151.70137 210 157.5 L 210 168 L 210 178.5 C 210 184.29867 214.70104 189 220.5 189 C 226.29867 189 231 184.29867 231 178.5 L 231 168 L 231 157.5 C 231 151.70108 226.29892 147 220.5 147 z M 409.5 147 C 403.70108 147 399 151.70108 399 157.5 C 399 163.29921 403.70108 168 409.5 168 C 415.29921 168 420 163.29921 420 157.5 C 420 151.70108 415.29921 147 409.5 147 z M 525 147 L 546 147 L 567 147 L 588 147 L 588 168 L 588 189 L 588 210 L 567 210 L 546 210 L 525 210 L 525 189 L 525 168 L 525 147 z M 262.5 168 C 256.70108 168 252 172.70108 252 178.5 C 252 184.29921 256.70108 189 262.5 189 C 268.29921 189 273 184.29921 273 178.5 C 273 172.70108 268.29921 168 262.5 168 z M 304.5 168 C 298.70129 168 294.00025 172.70137 294 178.5 L 294 189 L 294 210 L 294 220.5 C 294 226.29867 298.70104 231 304.5 231 C 310.29867 231 315 226.29867 315 220.5 L 315 210 L 325.5 210 C 331.29867 210 336 205.29867 336 199.5 C 336 193.70104 331.29867 189 325.5 189 L 315 189 L 315 178.5 C 315 172.70108 310.29892 168 304.5 168 z M 388.5 168 C 382.70129 168 378.00025 172.70137 378 178.5 L 378 189 L 378 199.5 C 378 205.29867 382.70104 210 388.5 210 C 394.29867 210 399 205.29867 399 199.5 L 399 189 L 399 178.5 C 399 172.70108 394.29892 168 388.5 168 z M 430.5 168 C 424.70108 168 420 172.70108 420 178.5 C 420 184.29921 424.70108 189 430.5 189 C 436.29921 189 441 184.29921 441 178.5 C 441 172.70108 436.29921 168 430.5 168 z M 556.5 168 C 550.70108 168 546 172.70108 546 178.5 C 546 184.29921 550.70108 189 556.5 189 C 562.29921 189 567 184.29921 567 178.5 C 567 172.70108 562.29921 168 556.5 168 z M 640.5 168 C 634.70108 168 630 172.70108 630 178.5 C 630 184.29921 634.70108 189 640.5 189 C 646.29921 189 651 184.29921 651 178.5 C 651 172.70108 646.29921 168 640.5 168 z M 766.5 168 C 760.70129 168 756.00025 172.70137 756 178.5 L 756 189 L 745.5 189 C 739.69902 189 735 193.70247 735 199.5 C 735 205.29686 739.69902 210 745.5 210 L 756 210 C 767.59794 210 777 200.59794 777 189 L 777 178.5 C 777 172.70108 772.29892 168 766.5 168 z M 52.5 210 C 46.701282 210 42.000252 214.70137 42 220.5 L 42 231 L 42 241.5 C 42 247.29867 46.70103 252 52.5 252 C 58.298676 252 63 247.29867 63 241.5 L 63 231 L 63 220.5 C 63 214.70108 58.298928 210 52.5 210 z M 115.5 210 C 109.70108 210 105 214.70108 105 220.5 C 105 226.29921 109.70108 231 115.5 231 C 121.29921 231 126 226.29921 126 220.5 C 126 214.70108 121.29921 210 115.5 210 z M 168 210 C 156.40218 210.00004 147 219.40189 147 231 L 147 241.5 C 147 247.29867 151.70104 252 157.5 252 C 163.29867 252 168 247.29867 168 241.5 L 168 231 L 178.5 231 C 184.29867 231 189 226.29867 189 220.5 C 189 214.70104 184.29867 210 178.5 210 L 168 210 z M 231 210 C 219.40218 210.00004 210 219.40189 210 231 C 210.00004 242.59794 219.40185 252 231 252 L 231 273 L 231 294 L 210 294 L 189 294 L 178.5 294 C 172.69902 294 168 298.70247 168 304.5 C 168 310.29686 172.69902 315 178.5 315 L 189 315 L 210 315 L 231 315 L 252 315 C 252.00004 326.59794 261.40185 336 273 336 L 273 357 L 273 378 L 262.5 378 C 256.69902 378 252 382.70247 252 388.5 C 252 394.29686 256.69902 399 262.5 399 L 273 399 L 294 399 C 294.00004 410.59794 303.40185 420 315 420 C 326.59794 420 336 410.59794 336 399 L 346.5 399 C 352.29867 399 357 394.29867 357 388.5 C 357 382.70104 352.29867 378 346.5 378 L 336 378 L 315 378 L 294 378 L 294 357 L 304.5 357 C 310.29867 357 315 352.29867 315 346.5 C 315 340.70104 310.29867 336 304.5 336 L 294 336 L 294 315 L 294 294 L 315 294 C 326.59794 294 336 284.59794 336 273 L 336 252 L 336 241.5 C 336 235.70108 331.29892 231 325.5 231 C 319.70129 231 315.00025 235.70137 315 241.5 L 315 252 L 315 273 L 294 273 L 294 252 C 294 240.40185 284.59794 231 273 231 L 252 231 C 252 219.40185 242.59794 210 231 210 z M 420 210 C 408.40218 210.00004 399 219.40189 399 231 L 378 231 L 367.5 231 C 361.69902 231 357 235.70247 357 241.5 C 357 247.29686 361.69902 252 367.5 252 L 378 252 L 378 262.5 C 378 268.29867 382.70104 273 388.5 273 C 394.29867 273 399 268.29867 399 262.5 L 399 252 C 410.59794 252 420 242.59794 420 231 L 430.5 231 C 436.29867 231 441 226.29867 441 220.5 C 441 214.70104 436.29867 210 430.5 210 L 420 210 z M 472.5 210 C 466.70108 210 462 214.70108 462 220.5 C 462 226.29921 466.70108 231 472.5 231 C 478.29921 231 483 226.29921 483 220.5 C 483 214.70108 478.29921 210 472.5 210 z M 955.5 210 C 949.70129 210 945.00025 214.70137 945 220.5 L 945 231 L 945 241.5 C 945 247.29867 949.70104 252 955.5 252 C 961.29867 252 966 247.29867 966 241.5 L 966 231 L 966 220.5 C 966 214.70108 961.29892 210 955.5 210 z M 94.5 231 C 88.701072 231 84 235.70108 84 241.5 C 84 247.29921 88.701072 252 94.5 252 C 100.29921 252 105 247.29921 105 241.5 C 105 235.70108 100.29921 231 94.5 231 z M 1039.5 231 C 1033.7011 231 1029 235.70108 1029 241.5 C 1029 247.29921 1033.7011 252 1039.5 252 C 1045.2992 252 1050 247.29921 1050 241.5 C 1050 235.70108 1045.2992 231 1039.5 231 z M 73.5 252 C 67.701282 252 63.000252 256.70137 63 262.5 L 63 273 C 51.402186 273.00004 42 282.40189 42 294 C 42.000042 305.59794 51.40185 315 63 315 L 84 315 L 105 315 C 116.59794 315 126 305.59794 126 294 L 147 294 L 157.5 294 C 163.29867 294 168 289.29867 168 283.5 C 168 277.70104 163.29867 273 157.5 273 L 147 273 L 126 273 L 105 273 L 84 273 L 84 262.5 C 84 256.70108 79.298928 252 73.5 252 z M 178.5 252 C 172.69902 252 168 256.70247 168 262.5 C 168 268.29686 172.69902 273 178.5 273 L 189 273 L 199.5 273 C 205.29867 273 210 268.29867 210 262.5 C 210 256.70104 205.29867 252 199.5 252 L 189 252 L 178.5 252 z M 252 252 L 273 252 L 273 273 L 252 273 L 252 252 z M 451.5 252 C 445.70108 252 441 256.70108 441 262.5 C 441 268.29921 445.70108 273 451.5 273 C 457.29921 273 462 268.29921 462 262.5 C 462 256.70108 457.29921 252 451.5 252 z M 829.5 252 C 823.70108 252 819 256.70108 819 262.5 C 819 268.29921 823.70108 273 829.5 273 C 835.29921 273 840 268.29921 840 262.5 C 840 256.70108 835.29921 252 829.5 252 z M 871.5 252 C 865.70129 252 861.00025 256.70137 861 262.5 L 861 273 C 849.40218 273.00004 840 282.40189 840 294 C 840.00004 305.59794 849.40185 315 861 315 L 882 315 L 882 325.5 C 882 331.29867 886.70104 336 892.5 336 C 898.29867 336 903 331.29867 903 325.5 L 903 315 C 903 303.40185 893.59794 294 882 294 L 882 273 L 882 262.5 C 882 256.70108 877.29892 252 871.5 252 z M 987 252 C 975.40218 252.00004 966 261.40189 966 273 L 945 273 L 934.5 273 C 928.69902 273 924 277.70247 924 283.5 C 924 289.29686 928.69902 294 934.5 294 L 945 294 L 945 315 L 945 336 L 934.5 336 C 928.69902 336 924 340.70247 924 346.5 C 924 352.29686 928.69902 357 934.5 357 L 945 357 L 945 367.5 C 945 373.29867 949.70104 378 955.5 378 C 961.29867 378 966 373.29867 966 367.5 L 966 357 L 976.5 357 C 982.29867 357 987 352.29867 987 346.5 C 987 340.70104 982.29867 336 976.5 336 L 966 336 L 966 315 L 987 315 L 997.5 315 C 1003.2987 315 1008 310.29867 1008 304.5 C 1008 298.70104 1003.2987 294 997.5 294 L 987 294 L 987 273 L 997.5 273 C 1003.2987 273 1008 268.29867 1008 262.5 C 1008 256.70104 1003.2987 252 997.5 252 L 987 252 z M 1060.5 252 C 1054.7013 252 1050.0003 256.70137 1050 262.5 L 1050 273 C 1038.4022 273.00004 1029 282.40189 1029 294 L 1029 315 L 1018.5 315 C 1012.699 315 1008 319.70247 1008 325.5 C 1008 331.29686 1012.699 336 1018.5 336 L 1029 336 C 1040.598 336 1050 326.59794 1050 315 L 1050 294 C 1061.598 294 1071 284.59794 1071 273 L 1071 262.5 C 1071 256.70108 1066.299 252 1060.5 252 z M 367.5 273 C 361.70129 273 357.00025 277.70137 357 283.5 L 357 294 L 357 315 C 357.00004 326.59794 366.40185 336 378 336 C 389.59794 336 399 326.59794 399 315 C 399 303.40185 389.59794 294 378 294 L 378 283.5 C 378 277.70108 373.29892 273 367.5 273 z M 409.5 273 C 403.70108 273 399 277.70108 399 283.5 C 399 289.29921 403.70108 294 409.5 294 C 415.29921 294 420 289.29921 420 283.5 C 420 277.70108 415.29921 273 409.5 273 z M 472.5 294 C 466.70129 294 462.00025 298.70137 462 304.5 L 462 315 L 451.5 315 C 445.69902 315 441 319.70247 441 325.5 C 441 331.29686 445.69902 336 451.5 336 L 462 336 L 462 357 L 462 367.5 C 462 373.29867 466.70104 378 472.5 378 C 478.29867 378 483 373.29867 483 367.5 L 483 357 L 483 336 L 483 315 L 483 304.5 C 483 298.70108 478.29892 294 472.5 294 z M 682.5 294 C 676.70108 294 672 298.70108 672 304.5 C 672 310.29921 676.70108 315 682.5 315 C 688.29921 315 693 310.29921 693 304.5 C 693 298.70108 688.29921 294 682.5 294 z M 724.5 294 C 718.70129 294 714.00025 298.70137 714 304.5 L 714 315 L 703.5 315 C 697.69902 315 693 319.70247 693 325.5 C 693 331.29686 697.69902 336 703.5 336 L 714 336 C 725.59794 336 735 326.59794 735 315 L 735 304.5 C 735 298.70108 730.29892 294 724.5 294 z M 136.5 315 C 130.70108 315 126 319.70108 126 325.5 C 126 331.29921 130.70108 336 136.5 336 C 142.29921 336 147 331.29921 147 325.5 C 147 319.70108 142.29921 315 136.5 315 z M 325.5 315 C 319.70108 315 315 319.70108 315 325.5 C 315 331.29921 319.70108 336 325.5 336 C 331.29921 336 336 331.29921 336 325.5 C 336 319.70108 331.29921 315 325.5 315 z M 661.5 315 C 655.70108 315 651 319.70108 651 325.5 C 651 331.29921 655.70108 336 661.5 336 C 667.29921 336 672 331.29921 672 325.5 C 672 319.70108 667.29921 315 661.5 315 z M 73.5 336 C 67.701282 336 63.000252 340.70137 63 346.5 L 63 357 L 63 367.5 C 63 373.29867 67.70103 378 73.5 378 C 79.298676 378 84 373.29867 84 367.5 L 84 357 L 84 346.5 C 84 340.70108 79.298928 336 73.5 336 z M 178.5 336 C 172.69902 336 168 340.70247 168 346.5 C 168 352.29686 172.69902 357 178.5 357 L 189 357 L 210 357 L 231 357 L 231 367.5 C 231 373.29867 235.70104 378 241.5 378 C 247.29867 378 252 373.29867 252 367.5 L 252 357 C 252 345.40185 242.59794 336 231 336 L 210 336 L 189 336 L 178.5 336 z M 430.5 336 C 424.70129 336 420.00025 340.70137 420 346.5 L 420 357 C 408.40218 357.00004 399 366.40189 399 378 L 399 399 L 399 420 L 399 441 L 399 451.5 C 399 457.29867 403.70104 462 409.5 462 C 415.29867 462 420 457.29867 420 451.5 L 420 441 L 441 441 L 462 441 L 462 462 L 462 472.5 C 462 478.29867 466.70104 483 472.5 483 C 478.29867 483 483 478.29867 483 472.5 L 483 462 L 483 441 L 493.5 441 C 499.29867 441 504 436.29867 504 430.5 C 504 424.70104 499.29867 420 493.5 420 L 483 420 C 483 408.40185 473.59794 399 462 399 C 462 387.40185 452.59794 378 441 378 L 441 357 L 441 346.5 C 441 340.70108 436.29892 336 430.5 336 z M 871.5 336 C 865.70129 336 861.00025 340.70137 861 346.5 L 861 357 C 861.00004 368.59794 870.40185 378 882 378 C 882.00004 389.59794 891.40185 399 903 399 L 903 409.5 C 903 415.29867 907.70104 420 913.5 420 C 919.29867 420 924 415.29867 924 409.5 L 924 399 C 924 387.40185 914.59794 378 903 378 C 903 366.40185 893.59794 357 882 357 L 882 346.5 C 882 340.70108 877.29892 336 871.5 336 z M 1060.5 336 C 1054.7013 336 1050.0003 340.70137 1050 346.5 L 1050 357 L 1039.5 357 C 1033.699 357 1029 361.70247 1029 367.5 C 1029 373.29686 1033.699 378 1039.5 378 L 1050 378 L 1050 399 C 1038.4022 399.00004 1029 408.40189 1029 420 L 1008 420 L 997.5 420 C 991.69902 420 987 424.70247 987 430.5 C 987 436.29686 991.69902 441 997.5 441 L 1008 441 L 1008 462 L 1008 483 L 987 483 L 966 483 C 954.40218 483.00004 945 492.40189 945 504 L 924 504 L 903 504 L 882 504 L 861 504 L 840 504 L 840 493.5 C 840 487.70108 835.29892 483 829.5 483 C 823.70129 483 819.00025 487.70137 819 493.5 L 819 504 L 819 525 C 807.40218 525.00004 798 534.40189 798 546 C 786.40218 546.00004 777 555.40189 777 567 L 766.5 567 C 760.69902 567 756 571.70247 756 577.5 C 756 583.29686 760.69902 588 766.5 588 L 777 588 L 777 598.5 C 777 604.29867 781.70104 609 787.5 609 C 793.29867 609 798 604.29867 798 598.5 L 798 588 L 819 588 C 830.59794 588 840 578.59794 840 567 L 850.5 567 C 856.29867 567 861 562.29867 861 556.5 C 861 550.70104 856.29867 546 850.5 546 L 840 546 L 840 525 L 861 525 C 861.00004 536.59794 870.40185 546 882 546 L 882 567 L 871.5 567 C 865.69902 567 861 571.70247 861 577.5 C 861 583.29686 865.69902 588 871.5 588 L 882 588 L 882 609 L 861 609 L 861 598.5 C 861 592.70108 856.29892 588 850.5 588 C 844.70129 588 840.00025 592.70137 840 598.5 L 840 609 L 829.5 609 C 823.69902 609 819 613.70247 819 619.5 C 819 625.29686 823.69902 630 829.5 630 L 840 630 L 840 651 L 840 672 L 819 672 L 798 672 L 798 651 L 808.5 651 C 814.29867 651 819 646.29867 819 640.5 C 819 634.70104 814.29867 630 808.5 630 L 798 630 C 786.40218 630.00004 777 639.40189 777 651 L 777 672 C 765.40218 672.00004 756 681.40189 756 693 C 744.40218 693.00004 735 702.40189 735 714 L 735 735 L 735 756 L 714 756 L 693 756 L 672 756 L 672 745.5 C 672 739.70108 667.29892 735 661.5 735 C 655.70129 735 651.00025 739.70137 651 745.5 L 651 756 C 651.00004 767.59794 660.40185 777 672 777 C 672.00004 788.59794 681.40185 798 693 798 C 693.00004 809.59794 702.40185 819 714 819 L 714 829.5 C 714 835.29867 718.70104 840 724.5 840 C 730.29867 840 735 835.29867 735 829.5 L 735 819 L 745.5 819 C 751.29867 819 756 814.29867 756 808.5 C 756 802.70104 751.29867 798 745.5 798 L 735 798 L 735 777 C 746.59794 777 756 767.59794 756 756 L 756 735 L 777 735 L 798 735 L 808.5 735 C 814.29867 735 819 730.29867 819 724.5 C 819 718.70104 814.29867 714 808.5 714 L 798 714 L 777 714 L 777 693 L 798 693 L 819 693 L 819 703.5 C 819 709.29867 823.70104 714 829.5 714 C 835.29867 714 840 709.29867 840 703.5 L 840 693 C 851.59794 693 861 683.59794 861 672 L 861 651 L 861 630 L 882 630 L 882 640.5 C 882 646.29867 886.70104 651 892.5 651 C 898.29867 651 903 646.29867 903 640.5 L 903 630 C 914.59794 630 924 620.59794 924 609 L 945 609 L 966 609 L 966 630 L 955.5 630 C 949.69902 630 945 634.70247 945 640.5 C 945 646.29686 949.69902 651 955.5 651 L 966 651 C 966.00004 662.59794 975.40185 672 987 672 L 1008 672 L 1018.5 672 C 1024.2987 672 1029 667.29867 1029 661.5 C 1029 655.70104 1024.2987 651 1018.5 651 L 1008 651 L 987 651 L 987 630 L 997.5 630 C 1003.2987 630 1008 625.29867 1008 619.5 C 1008 613.70104 1003.2987 609 997.5 609 L 987 609 L 987 588 L 987 567 L 987 546 L 987 525 L 987 504 L 1008 504 C 1008 515.59794 1017.4018 525 1029 525 L 1050 525 C 1061.598 525 1071 515.59794 1071 504 L 1071 483 L 1071 472.5 C 1071 466.70108 1066.299 462 1060.5 462 C 1054.7013 462 1050.0003 466.70137 1050 472.5 L 1050 483 L 1029 483 L 1029 462 L 1029 441 L 1050 441 C 1061.598 441 1071 431.59794 1071 420 L 1071 399 L 1071 378 L 1071 357 L 1071 346.5 C 1071 340.70108 1066.299 336 1060.5 336 z M 115.5 357 C 109.69902 357 105 361.70247 105 367.5 C 105 373.29686 109.69902 378 115.5 378 L 126 378 L 136.5 378 C 142.29867 378 147 373.29867 147 367.5 C 147 361.70104 142.29867 357 136.5 357 L 126 357 L 115.5 357 z M 367.5 357 C 361.70108 357 357 361.70108 357 367.5 C 357 373.29921 361.70108 378 367.5 378 C 373.29921 378 378 373.29921 378 367.5 C 378 361.70108 373.29921 357 367.5 357 z M 514.5 357 C 508.70108 357 504 361.70108 504 367.5 C 504 373.29921 508.70108 378 514.5 378 C 520.29921 378 525 373.29921 525 367.5 C 525 361.70108 520.29921 357 514.5 357 z M 619.5 357 C 613.70129 357 609.00025 361.70137 609 367.5 L 609 378 L 609 399 L 598.5 399 C 592.69902 399 588 403.70247 588 409.5 C 588 415.29686 592.69902 420 598.5 420 L 609 420 L 609 430.5 C 609 436.29867 613.70104 441 619.5 441 C 625.29867 441 630 436.29867 630 430.5 L 630 420 L 651 420 L 672 420 C 672.00004 431.59794 681.40185 441 693 441 C 704.59794 441 714 431.59794 714 420 C 714 408.40185 704.59794 399 693 399 L 672 399 L 651 399 C 651 387.40185 641.59794 378 630 378 L 630 367.5 C 630 361.70108 625.29892 357 619.5 357 z M 682.5 357 C 676.69902 357 672 361.70247 672 367.5 C 672 373.29686 676.69902 378 682.5 378 L 693 378 L 703.5 378 C 709.29867 378 714 373.29867 714 367.5 C 714 361.70104 709.29867 357 703.5 357 L 693 357 L 682.5 357 z M 997.5 357 C 991.70108 357 987 361.70108 987 367.5 C 987 373.29921 991.70108 378 997.5 378 C 1003.2992 378 1008 373.29921 1008 367.5 C 1008 361.70108 1003.2992 357 997.5 357 z M 52.5 378 C 46.701282 378 42.000252 382.70137 42 388.5 L 42 399 L 42 420 L 42 441 L 42 462 C 42.000042 473.59794 51.40185 483 63 483 L 63 493.5 C 63 499.29867 67.70103 504 73.5 504 C 79.298676 504 84 499.29867 84 493.5 L 84 483 C 95.59794 483 105 473.59794 105 462 L 105 441 C 105 429.40185 95.59794 420 84 420 C 84 408.40185 74.59794 399 63 399 L 63 388.5 C 63 382.70108 58.298928 378 52.5 378 z M 157.5 378 C 151.69902 378 147 382.70247 147 388.5 C 147 394.29686 151.69902 399 157.5 399 L 168 399 L 189 399 L 189 420 L 178.5 420 C 172.69902 420 168 424.70247 168 430.5 C 168 436.29686 172.69902 441 178.5 441 L 189 441 L 210 441 L 210 462 L 210 483 C 198.40218 483.00004 189 492.40189 189 504 L 168 504 L 168 493.5 C 168 487.70108 163.29892 483 157.5 483 C 151.70129 483 147.00025 487.70137 147 493.5 L 147 504 C 135.40218 504.00004 126 513.40189 126 525 L 105 525 L 105 514.5 C 105 508.70108 100.29893 504 94.5 504 C 88.701282 504 84.000252 508.70137 84 514.5 L 84 525 L 73.5 525 C 67.699014 525 63 529.70247 63 535.5 C 63 541.29686 67.699014 546 73.5 546 L 84 546 L 84 567 C 72.402186 567.00004 63 576.40189 63 588 L 52.5 588 C 46.699014 588 42 592.70247 42 598.5 C 42 604.29686 46.699014 609 52.5 609 L 63 609 L 84 609 C 95.59794 609 105 599.59794 105 588 L 105 567 L 105 546 L 126 546 L 126 567 L 126 588 C 126.00004 599.59794 135.40185 609 147 609 L 168 609 L 189 609 C 189.00004 620.59794 198.40185 630 210 630 C 221.59794 630 231 620.59794 231 609 L 252 609 L 252 619.5 C 252 625.29867 256.70104 630 262.5 630 C 268.29867 630 273 625.29867 273 619.5 L 273 609 L 283.5 609 C 289.29867 609 294 604.29867 294 598.5 C 294 592.70104 289.29867 588 283.5 588 L 273 588 L 252 588 L 231 588 L 231 567 L 252 567 L 273 567 C 284.59794 567 294 557.59794 294 546 L 294 525 L 294 504 L 315 504 L 315 525 L 315 546 L 315 567 L 304.5 567 C 298.69902 567 294 571.70247 294 577.5 C 294 583.29686 298.69902 588 304.5 588 L 315 588 L 336 588 C 336.00004 599.59794 345.40185 609 357 609 L 378 609 L 399 609 L 399 630 L 399 651 L 399 672 C 399.00004 683.59794 408.40185 693 420 693 L 441 693 L 462 693 L 483 693 L 483 703.5 C 483 709.29867 487.70104 714 493.5 714 C 499.29867 714 504 709.29867 504 703.5 L 504 693 L 504 672 L 525 672 L 546 672 L 567 672 L 567 693 C 555.40218 693.00004 546 702.40189 546 714 L 525 714 C 513.40218 714.00004 504 723.40189 504 735 L 493.5 735 C 487.69902 735 483 739.70247 483 745.5 C 483 751.29686 487.69902 756 493.5 756 L 504 756 C 515.59794 756 525 746.59794 525 735 L 546 735 C 557.59794 735 567 725.59794 567 714 L 588 714 L 588 735 C 576.40218 735.00004 567 744.40189 567 756 L 567 777 L 546 777 L 546 766.5 C 546 760.70108 541.29892 756 535.5 756 C 529.70129 756 525.00025 760.70137 525 766.5 L 525 777 C 513.40218 777.00004 504 786.40189 504 798 L 504 808.5 C 504 814.29867 508.70104 819 514.5 819 C 520.29867 819 525 814.29867 525 808.5 L 525 798 L 546 798 L 567 798 C 578.59794 798 588 788.59794 588 777 C 599.59794 777 609 767.59794 609 756 L 609 735 L 609 714 L 609 693 C 609 681.40185 599.59794 672 588 672 L 588 651 L 609 651 C 609.00004 662.59794 618.40185 672 630 672 L 651 672 L 661.5 672 C 667.29867 672 672 667.29867 672 661.5 C 672 655.70104 667.29867 651 661.5 651 L 651 651 L 630 651 C 630 639.40185 620.59794 630 609 630 L 588 630 L 588 609 L 609 609 L 630 609 L 651 609 C 651.00004 620.59794 660.40185 630 672 630 L 682.5 630 C 688.29867 630 693 625.29867 693 619.5 C 693 613.70104 688.29867 609 682.5 609 L 672 609 C 672 597.40185 662.59794 588 651 588 L 651 567 L 651 546 L 651 525 L 651 504 C 662.59794 504 672 494.59794 672 483 L 693 483 C 693.00004 494.59794 702.40185 504 714 504 L 724.5 504 C 730.29867 504 735 499.29867 735 493.5 C 735 487.70104 730.29867 483 724.5 483 L 714 483 C 714 471.40185 704.59794 462 693 462 L 672 462 L 672 451.5 C 672 445.70108 667.29892 441 661.5 441 C 655.70129 441 651.00025 445.70137 651 451.5 L 651 462 L 630 462 L 609 462 C 609 450.40185 599.59794 441 588 441 L 567 441 C 555.40218 441.00004 546 450.40189 546 462 L 535.5 462 C 529.69902 462 525 466.70247 525 472.5 C 525 478.29686 529.69902 483 535.5 483 L 546 483 C 557.59794 483 567 473.59794 567 462 L 588 462 L 588 483 L 588 504 L 567 504 L 546 504 L 525 504 L 525 493.5 C 525 487.70108 520.29892 483 514.5 483 C 508.70129 483 504.00025 487.70137 504 493.5 L 504 504 L 483 504 L 472.5 504 C 466.69902 504 462 508.70247 462 514.5 C 462 520.29686 466.69902 525 472.5 525 L 483 525 L 504 525 L 504 546 L 504 567 L 504 588 L 483 588 L 472.5 588 C 466.69902 588 462 592.70247 462 598.5 C 462 604.29686 466.69902 609 472.5 609 L 483 609 L 504 609 L 504 630 L 483 630 C 471.40218 630.00004 462 639.40189 462 651 L 441 651 L 420 651 L 420 630 L 420 609 L 430.5 609 C 436.29867 609 441 604.29867 441 598.5 C 441 592.70104 436.29867 588 430.5 588 L 420 588 L 420 567 L 420 556.5 C 420 550.70108 415.29892 546 409.5 546 C 403.70129 546 399.00025 550.70137 399 556.5 L 399 567 L 378 567 L 357 567 L 336 567 L 336 546 L 336 525 L 336 504 L 346.5 504 C 352.29867 504 357 499.29867 357 493.5 C 357 487.70104 352.29867 483 346.5 483 L 336 483 L 315 483 L 315 472.5 C 315 466.70108 310.29892 462 304.5 462 C 298.70129 462 294.00025 466.70137 294 472.5 L 294 483 L 273 483 L 273 462 C 273 450.40185 263.59794 441 252 441 L 252 420 L 252 409.5 C 252 403.70108 247.29892 399 241.5 399 C 235.70129 399 231.00025 403.70137 231 409.5 L 231 420 L 210 420 L 210 399 L 220.5 399 C 226.29867 399 231 394.29867 231 388.5 C 231 382.70104 226.29867 378 220.5 378 L 210 378 L 189 378 L 168 378 L 157.5 378 z M 976.5 378 C 970.70108 378 966 382.70108 966 388.5 C 966 394.29921 970.70108 399 976.5 399 C 982.29921 399 987 394.29921 987 388.5 C 987 382.70108 982.29921 378 976.5 378 z M 136.5 399 C 130.70108 399 126 403.70108 126 409.5 C 126 415.29921 130.70108 420 136.5 420 C 142.29921 420 147 415.29921 147 409.5 C 147 403.70108 142.29921 399 136.5 399 z M 420 399 L 441 399 L 441 420 L 420 420 L 420 399 z M 808.5 399 C 802.70108 399 798 403.70108 798 409.5 C 798 415.29921 802.70108 420 808.5 420 C 814.29921 420 819 415.29921 819 409.5 C 819 403.70108 814.29921 399 808.5 399 z M 850.5 399 C 844.70129 399 840.00025 403.70137 840 409.5 L 840 420 L 840 430.5 C 840 436.29867 844.70104 441 850.5 441 C 856.29867 441 861 436.29867 861 430.5 L 861 420 L 861 409.5 C 861 403.70108 856.29892 399 850.5 399 z M 955.5 399 C 949.70108 399 945 403.70108 945 409.5 C 945 415.29921 949.70108 420 955.5 420 C 961.29921 420 966 415.29921 966 409.5 C 966 403.70108 961.29921 399 955.5 399 z M 283.5 420 C 277.70108 420 273 424.70108 273 430.5 C 273 436.29921 277.70108 441 283.5 441 C 289.29921 441 294 436.29921 294 430.5 C 294 424.70108 289.29921 420 283.5 420 z M 357 420 C 345.40218 420.00004 336 429.40189 336 441 L 325.5 441 C 319.69902 441 315 445.70247 315 451.5 C 315 457.29686 319.69902 462 325.5 462 L 336 462 C 347.59794 462 357 452.59794 357 441 L 367.5 441 C 373.29867 441 378 436.29867 378 430.5 C 378 424.70104 373.29867 420 367.5 420 L 357 420 z M 63 441 L 84 441 L 84 462 L 63 462 L 63 441 z M 136.5 441 C 130.70108 441 126 445.70108 126 451.5 C 126 457.29921 130.70108 462 136.5 462 C 142.29921 462 147 457.29921 147 451.5 C 147 445.70108 142.29921 441 136.5 441 z M 514.5 441 C 508.70108 441 504 445.70108 504 451.5 C 504 457.29921 508.70108 462 514.5 462 C 520.29921 462 525 457.29921 525 451.5 C 525 445.70108 520.29921 441 514.5 441 z M 745.5 441 C 739.70129 441 735.00025 445.70137 735 451.5 L 735 462 C 735.00004 473.59794 744.40185 483 756 483 L 766.5 483 C 772.29867 483 777 478.29867 777 472.5 C 777 466.70104 772.29867 462 766.5 462 L 756 462 L 756 451.5 C 756 445.70108 751.29892 441 745.5 441 z M 829.5 441 C 823.70108 441 819 445.70108 819 451.5 C 819 457.29921 823.70108 462 829.5 462 C 835.29921 462 840 457.29921 840 451.5 C 840 445.70108 835.29921 441 829.5 441 z M 882 441 C 870.40218 441.00004 861 450.40189 861 462 C 861.00004 473.59794 870.40185 483 882 483 C 893.59794 483 903 473.59794 903 462 L 913.5 462 C 919.29867 462 924 457.29867 924 451.5 C 924 445.70104 919.29867 441 913.5 441 L 903 441 L 882 441 z M 955.5 441 C 949.69902 441 945 445.70247 945 451.5 C 945 457.29686 949.69902 462 955.5 462 L 966 462 L 976.5 462 C 982.29867 462 987 457.29867 987 451.5 C 987 445.70104 982.29867 441 976.5 441 L 966 441 L 955.5 441 z M 178.5 462 C 172.70108 462 168 466.70108 168 472.5 C 168 478.29921 172.70108 483 178.5 483 C 184.29921 483 189 478.29921 189 472.5 C 189 466.70108 184.29921 462 178.5 462 z M 808.5 462 C 802.70108 462 798 466.70108 798 472.5 C 798 478.29921 802.70108 483 808.5 483 C 814.29921 483 819 478.29921 819 472.5 C 819 466.70108 814.29921 462 808.5 462 z M 934.5 462 C 928.70108 462 924 466.70108 924 472.5 C 924 478.29921 928.70108 483 934.5 483 C 940.29921 483 945 478.29921 945 472.5 C 945 466.70108 940.29921 462 934.5 462 z M 231 483 L 252 483 L 252 504 L 231 504 L 231 483 z M 441 483 C 429.40218 483.00004 420 492.40189 420 504 L 399 504 L 378 504 C 366.40218 504.00004 357 513.40189 357 525 L 357 535.5 C 357 541.29867 361.70104 546 367.5 546 C 373.29867 546 378 541.29867 378 535.5 L 378 525 L 399 525 L 420 525 C 431.59794 525 441 515.59794 441 504 L 451.5 504 C 457.29867 504 462 499.29867 462 493.5 C 462 487.70104 457.29867 483 451.5 483 L 441 483 z M 609 483 L 630 483 L 630 504 L 609 504 L 609 483 z M 52.5 504 C 46.701072 504 42 508.70108 42 514.5 C 42 520.29921 46.701072 525 52.5 525 C 58.299222 525 63 520.29921 63 514.5 C 63 508.70108 58.299222 504 52.5 504 z M 682.5 504 C 676.70129 504 672.00025 508.70137 672 514.5 L 672 525 L 672 535.5 C 672 541.29867 676.70104 546 682.5 546 C 688.29867 546 693 541.29867 693 535.5 L 693 525 L 693 514.5 C 693 508.70108 688.29892 504 682.5 504 z M 787.5 504 C 781.70108 504 777 508.70108 777 514.5 C 777 520.29921 781.70108 525 787.5 525 C 793.29921 525 798 520.29921 798 514.5 C 798 508.70108 793.29921 504 787.5 504 z M 147 525 L 168 525 L 189 525 L 210 525 L 210 546 L 210 567 L 210 588 L 189 588 L 168 588 L 147 588 L 147 567 L 147 546 L 147 525 z M 252 525 L 273 525 L 273 546 L 252 546 L 252 525 z M 451.5 525 C 445.70108 525 441 529.70108 441 535.5 C 441 541.29921 445.70108 546 451.5 546 C 457.29921 546 462 541.29921 462 535.5 C 462 529.70108 457.29921 525 451.5 525 z M 525 525 L 546 525 L 567 525 L 588 525 L 588 546 L 588 567 L 588 588 L 567 588 L 546 588 L 525 588 L 525 567 L 525 546 L 525 525 z M 609 525 L 630 525 L 630 546 L 609 546 L 609 525 z M 735 525 C 723.40218 525.00004 714 534.40189 714 546 C 702.40218 546.00004 693 555.40189 693 567 L 693 588 L 693 598.5 C 693 604.29867 697.70104 609 703.5 609 C 709.29867 609 714 604.29867 714 598.5 L 714 588 L 714 567 C 725.59794 567 735 557.59794 735 546 L 756 546 L 766.5 546 C 772.29867 546 777 541.29867 777 535.5 C 777 529.70104 772.29867 525 766.5 525 L 756 525 L 735 525 z M 903 525 L 924 525 L 945 525 L 966 525 L 966 546 L 966 567 L 966 588 L 945 588 L 924 588 L 903 588 L 903 567 L 903 546 L 903 525 z M 52.5 546 C 46.701072 546 42 550.70108 42 556.5 C 42 562.29921 46.701072 567 52.5 567 C 58.299222 567 63 562.29921 63 556.5 C 63 550.70108 58.299222 546 52.5 546 z M 178.5 546 C 172.70108 546 168 550.70108 168 556.5 C 168 562.29921 172.70108 567 178.5 567 C 184.29921 567 189 562.29921 189 556.5 C 189 550.70108 184.29921 546 178.5 546 z M 556.5 546 C 550.70108 546 546 550.70108 546 556.5 C 546 562.29921 550.70108 567 556.5 567 C 562.29921 567 567 562.29921 567 556.5 C 567 550.70108 562.29921 546 556.5 546 z M 934.5 546 C 928.70108 546 924 550.70108 924 556.5 C 924 562.29921 928.70108 567 934.5 567 C 940.29921 567 945 562.29921 945 556.5 C 945 550.70108 940.29921 546 934.5 546 z M 1029 546 C 1017.4022 546.00004 1008 555.4019 1008 567 C 1008 578.59793 1017.4018 588 1029 588 L 1050 588 L 1050 598.5 C 1050 604.29866 1054.701 609 1060.5 609 C 1066.2987 609 1071 604.29866 1071 598.5 L 1071 588 L 1071 567 C 1071 555.40186 1061.598 546 1050 546 L 1029 546 z M 451.5 567 C 445.70108 567 441 571.70108 441 577.5 C 441 583.29921 445.70108 588 451.5 588 C 457.29921 588 462 583.29921 462 577.5 C 462 571.70108 457.29921 567 451.5 567 z M 115.5 609 C 109.70108 609 105 613.70108 105 619.5 C 105 625.29921 109.70108 630 115.5 630 C 121.29921 630 126 625.29921 126 619.5 C 126 613.70108 121.29921 609 115.5 609 z M 325.5 609 C 319.70129 609 315.00025 613.70137 315 619.5 L 315 630 L 304.5 630 C 298.69902 630 294 634.70247 294 640.5 C 294 646.29686 298.69902 651 304.5 651 L 315 651 C 326.59794 651 336 641.59794 336 630 L 336 619.5 C 336 613.70108 331.29892 609 325.5 609 z M 451.5 609 C 445.70108 609 441 613.70108 441 619.5 C 441 625.29921 445.70108 630 451.5 630 C 457.29921 630 462 625.29921 462 619.5 C 462 613.70108 457.29921 609 451.5 609 z M 724.5 609 C 718.70129 609 714.00025 613.70137 714 619.5 L 714 630 C 702.40218 630.00004 693 639.40189 693 651 L 693 661.5 C 693 667.29867 697.70104 672 703.5 672 C 709.29867 672 714 667.29867 714 661.5 L 714 651 C 725.59794 651 735 641.59794 735 630 L 735 619.5 C 735 613.70108 730.29892 609 724.5 609 z M 73.5 630 C 67.701282 630 63.000252 634.70137 63 640.5 L 63 651 L 63 672 L 52.5 672 C 46.699014 672 42 676.70247 42 682.5 C 42 688.29686 46.699014 693 52.5 693 L 63 693 C 74.59794 693 84 683.59794 84 672 L 94.5 672 C 100.29867 672 105 667.29867 105 661.5 C 105 655.70104 100.29867 651 94.5 651 L 84 651 L 84 640.5 C 84 634.70108 79.298928 630 73.5 630 z M 168 630 C 156.40218 630.00004 147 639.40189 147 651 C 135.40218 651.00004 126 660.40189 126 672 L 115.5 672 C 109.69902 672 105 676.70247 105 682.5 C 105 688.29686 109.69902 693 115.5 693 L 126 693 L 126 714 C 126.00004 725.59794 135.40185 735 147 735 L 168 735 L 189 735 C 200.59794 735 210 725.59794 210 714 L 231 714 L 252 714 C 263.59794 714 273 704.59794 273 693 L 294 693 L 315 693 L 325.5 693 C 331.29867 693 336 688.29867 336 682.5 C 336 676.70104 331.29867 672 325.5 672 L 315 672 L 294 672 C 294 660.40185 284.59794 651 273 651 C 261.40218 651.00004 252 660.40189 252 672 L 231 672 C 219.40218 672.00004 210 681.40189 210 693 C 198.40218 693.00004 189 702.40189 189 714 L 168 714 L 147 714 L 147 693 L 147 672 C 158.59794 672 168 662.59794 168 651 L 178.5 651 C 184.29867 651 189 646.29867 189 640.5 C 189 634.70104 184.29867 630 178.5 630 L 168 630 z M 241.5 630 C 235.70108 630 231 634.70108 231 640.5 C 231 646.29921 235.70108 651 241.5 651 C 247.29921 651 252 646.29921 252 640.5 C 252 634.70108 247.29921 630 241.5 630 z M 367.5 630 C 361.70129 630 357.00025 634.70137 357 640.5 L 357 651 L 357 661.5 C 357 667.29867 361.70104 672 367.5 672 C 373.29867 672 378 667.29867 378 661.5 L 378 651 L 378 640.5 C 378 634.70108 373.29892 630 367.5 630 z M 525 630 L 546 630 L 546 651 L 525 651 L 525 630 z M 199.5 651 C 193.70108 651 189 655.70108 189 661.5 C 189 667.29921 193.70108 672 199.5 672 C 205.29921 672 210 667.29921 210 661.5 C 210 655.70108 205.29921 651 199.5 651 z M 934.5 651 C 928.70129 651 924.00025 655.70137 924 661.5 L 924 672 L 913.5 672 C 907.69902 672 903 676.70247 903 682.5 C 903 688.29686 907.69902 693 913.5 693 L 924 693 C 935.59794 693 945 683.59794 945 672 L 945 661.5 C 945 655.70108 940.29892 651 934.5 651 z M 178.5 672 C 172.70108 672 168 676.70108 168 682.5 C 168 688.29921 172.70108 693 178.5 693 C 184.29921 693 189 688.29921 189 682.5 C 189 676.70108 184.29921 672 178.5 672 z M 1050 672 C 1038.4022 672.00004 1029 681.40189 1029 693 C 1017.4022 693.00004 1008 702.40189 1008 714 L 1008 724.5 C 1008 730.29867 1012.701 735 1018.5 735 C 1024.2987 735 1029 730.29867 1029 724.5 L 1029 714 L 1050 714 C 1061.598 714 1071 704.59794 1071 693 C 1071 681.40185 1061.598 672 1050 672 z M 94.5 693 C 88.701072 693 84 697.70108 84 703.5 C 84 709.29921 88.701072 714 94.5 714 C 100.29921 714 105 709.29921 105 703.5 C 105 697.70108 100.29921 693 94.5 693 z M 346.5 693 C 340.69902 693 336 697.70247 336 703.5 C 336 709.29686 340.69902 714 346.5 714 L 357 714 L 367.5 714 C 373.29867 714 378 709.29867 378 703.5 C 378 697.70104 373.29867 693 367.5 693 L 357 693 L 346.5 693 z M 651 693 C 639.40218 693.00004 630 702.40189 630 714 L 630 724.5 C 630 730.29867 634.70104 735 640.5 735 C 646.29867 735 651 730.29867 651 724.5 L 651 714 L 661.5 714 C 667.29867 714 672 709.29867 672 703.5 C 672 697.70104 667.29867 693 661.5 693 L 651 693 z M 703.5 693 C 697.70108 693 693 697.70108 693 703.5 C 693 709.29921 697.70108 714 703.5 714 C 709.29921 714 714 709.29921 714 703.5 C 714 697.70108 709.29921 693 703.5 693 z M 892.5 693 C 886.70129 693 882.00025 697.70137 882 703.5 L 882 714 L 882 735 C 870.40218 735.00004 861 744.40189 861 756 L 840 756 L 840 745.5 C 840 739.70108 835.29892 735 829.5 735 C 823.70129 735 819.00025 739.70137 819 745.5 L 819 756 C 807.40218 756.00004 798 765.40189 798 777 L 777 777 L 766.5 777 C 760.69902 777 756 781.70247 756 787.5 C 756 793.29686 760.69902 798 766.5 798 L 777 798 L 798 798 L 798 808.5 C 798 814.29867 802.70104 819 808.5 819 C 814.29867 819 819 814.29867 819 808.5 L 819 798 C 830.59794 798 840 788.59794 840 777 L 861 777 L 882 777 L 882 787.5 C 882 793.29867 886.70104 798 892.5 798 C 898.29867 798 903 793.29867 903 787.5 L 903 777 L 924 777 C 935.59794 777 945 767.59794 945 756 L 945 735 L 945 724.5 C 945 718.70108 940.29892 714 934.5 714 C 928.70129 714 924.00025 718.70137 924 724.5 L 924 735 L 903 735 L 903 714 L 903 703.5 C 903 697.70108 898.29892 693 892.5 693 z M 955.5 693 C 949.69902 693 945 697.70247 945 703.5 C 945 709.29686 949.69902 714 955.5 714 L 966 714 L 976.5 714 C 982.29867 714 987 709.29867 987 703.5 C 987 697.70104 982.29867 693 976.5 693 L 966 693 L 955.5 693 z M 52.5 714 C 46.699014 714 42 718.70247 42 724.5 C 42 730.29686 46.699014 735 52.5 735 L 63 735 L 73.5 735 C 79.298676 735 84 730.29867 84 724.5 C 84 718.70104 79.298676 714 73.5 714 L 63 714 L 52.5 714 z M 304.5 714 C 298.69902 714 294 718.70247 294 724.5 C 294 730.29686 298.69902 735 304.5 735 L 315 735 L 325.5 735 C 331.29867 735 336 730.29867 336 724.5 C 336 718.70104 331.29867 714 325.5 714 L 315 714 L 304.5 714 z M 430.5 714 C 424.70108 714 420 718.70108 420 724.5 C 420 730.29921 424.70108 735 430.5 735 C 436.29921 735 441 730.29921 441 724.5 C 441 718.70108 436.29921 714 430.5 714 z M 472.5 714 C 466.70108 714 462 718.70108 462 724.5 C 462 730.29921 466.70108 735 472.5 735 C 478.29921 735 483 730.29921 483 724.5 C 483 718.70108 478.29921 714 472.5 714 z M 682.5 714 C 676.70108 714 672 718.70108 672 724.5 C 672 730.29921 676.70108 735 682.5 735 C 688.29921 735 693 730.29921 693 724.5 C 693 718.70108 688.29921 714 682.5 714 z M 94.5 735 C 88.701282 735 84.000252 739.70137 84 745.5 L 84 756 L 63 756 L 52.5 756 C 46.699014 756 42 760.70247 42 766.5 C 42 772.29686 46.699014 777 52.5 777 L 63 777 L 63 798 L 52.5 798 C 46.699014 798 42 802.70247 42 808.5 C 42 814.29686 46.699014 819 52.5 819 L 63 819 L 63 840 L 63 861 L 63 882 L 52.5 882 C 46.699014 882 42 886.70247 42 892.5 C 42 898.29686 46.699014 903 52.5 903 L 63 903 L 84 903 C 95.59794 903 105 893.59794 105 882 L 115.5 882 C 121.29867 882 126 877.29867 126 871.5 C 126 865.70104 121.29867 861 115.5 861 L 105 861 L 84 861 L 84 840 L 84 819 L 94.5 819 C 100.29867 819 105 814.29867 105 808.5 C 105 802.70104 100.29867 798 94.5 798 L 84 798 L 84 777 L 105 777 C 105.00004 788.59794 114.40185 798 126 798 L 147 798 C 147.00004 809.59794 156.40185 819 168 819 L 189 819 C 200.59794 819 210 809.59794 210 798 L 210 777 L 231 777 C 242.59794 777 252 767.59794 252 756 L 273 756 L 283.5 756 C 289.29867 756 294 751.29867 294 745.5 C 294 739.70104 289.29867 735 283.5 735 L 273 735 L 252 735 C 240.40218 735.00004 231 744.40189 231 756 L 210 756 L 189 756 L 168 756 C 156.40218 756.00004 147 765.40189 147 777 L 126 777 C 126 765.40185 116.59794 756 105 756 L 105 745.5 C 105 739.70108 100.29893 735 94.5 735 z M 367.5 735 C 361.69902 735 357 739.70247 357 745.5 C 357 751.29686 361.69902 756 367.5 756 L 378 756 C 378.00004 767.59794 387.40185 777 399 777 L 399 798 L 388.5 798 C 382.69902 798 378 802.70247 378 808.5 C 378 814.29686 382.69902 819 388.5 819 L 399 819 L 399 840 L 378 840 L 367.5 840 C 361.69902 840 357 844.70247 357 850.5 C 357 856.29686 361.69902 861 367.5 861 L 378 861 L 399 861 L 399 882 C 399.00004 893.59794 408.40185 903 420 903 L 430.5 903 C 436.29867 903 441 898.29867 441 892.5 C 441 886.70104 436.29867 882 430.5 882 L 420 882 L 420 861 L 420 840 L 420 819 L 430.5 819 C 436.29867 819 441 814.29867 441 808.5 C 441 802.70104 436.29867 798 430.5 798 L 420 798 L 420 777 L 441 777 L 441 787.5 C 441 793.29867 445.70104 798 451.5 798 C 457.29867 798 462 793.29867 462 787.5 L 462 777 C 462 765.40185 452.59794 756 441 756 L 420 756 L 399 756 C 399 744.40185 389.59794 735 378 735 L 367.5 735 z M 1050 735 C 1038.4022 735.00004 1029 744.40189 1029 756 L 1008 756 L 987 756 C 975.40218 756.00004 966 765.40189 966 777 L 966 787.5 C 966 793.29867 970.70104 798 976.5 798 C 982.29867 798 987 793.29867 987 787.5 L 987 777 L 1008 777 L 1029 777 L 1050 777 C 1061.598 777 1071 767.59794 1071 756 C 1071 744.40185 1061.598 735 1050 735 z M 304.5 756 C 298.70108 756 294 760.70108 294 766.5 C 294 772.29921 298.70108 777 304.5 777 C 310.29921 777 315 772.29921 315 766.5 C 315 760.70108 310.29921 756 304.5 756 z M 168 777 L 189 777 L 189 798 L 168 798 L 168 777 z M 283.5 777 C 277.70108 777 273 781.70108 273 787.5 C 273 793.29921 277.70108 798 283.5 798 C 289.29921 798 294 793.29921 294 787.5 C 294 781.70108 289.29921 777 283.5 777 z M 325.5 777 C 319.70108 777 315 781.70108 315 787.5 C 315 793.29921 319.70108 798 325.5 798 C 331.29921 798 336 793.29921 336 787.5 C 336 781.70108 331.29921 777 325.5 777 z M 367.5 777 C 361.70108 777 357 781.70108 357 787.5 C 357 793.29921 361.70108 798 367.5 798 C 373.29921 798 378 793.29921 378 787.5 C 378 781.70108 373.29921 777 367.5 777 z M 630 777 C 618.40218 777.00004 609 786.40189 609 798 C 609.00004 809.59794 618.40185 819 630 819 L 630 829.5 C 630 835.29867 634.70104 840 640.5 840 C 646.29867 840 651 835.29867 651 829.5 L 651 819 L 651 798 C 651 786.40185 641.59794 777 630 777 z M 346.5 798 C 340.70108 798 336 802.70108 336 808.5 C 336 814.29921 340.70108 819 346.5 819 C 352.29921 819 357 814.29921 357 808.5 C 357 802.70108 352.29921 798 346.5 798 z M 955.5 798 C 949.70108 798 945 802.70108 945 808.5 C 945 814.29921 949.70108 819 955.5 819 C 961.29921 819 966 814.29921 966 808.5 C 966 802.70108 961.29921 798 955.5 798 z M 1029 798 C 1017.4022 798.00004 1008 807.40189 1008 819 C 1008 830.59794 1017.4018 840 1029 840 L 1050 840 L 1050 861 C 1038.4022 861.00004 1029 870.40189 1029 882 L 1029 892.5 C 1029 898.29867 1033.701 903 1039.5 903 C 1045.2987 903 1050 898.29867 1050 892.5 L 1050 882 C 1061.598 882 1071 872.59794 1071 861 L 1071 840 L 1071 819 C 1071 807.40185 1061.598 798 1050 798 L 1029 798 z M 115.5 819 C 109.69902 819 105 823.70247 105 829.5 C 105 835.29686 109.69902 840 115.5 840 L 126 840 L 136.5 840 C 142.29867 840 147 835.29867 147 829.5 C 147 823.70104 142.29867 819 136.5 819 L 126 819 L 115.5 819 z M 241.5 819 C 235.70129 819 231.00025 823.70137 231 829.5 L 231 840 L 231 850.5 C 231 856.29867 235.70104 861 241.5 861 C 247.29867 861 252 856.29867 252 850.5 L 252 840 L 252 829.5 C 252 823.70108 247.29892 819 241.5 819 z M 283.5 819 C 277.70108 819 273 823.70108 273 829.5 C 273 835.29921 277.70108 840 283.5 840 C 289.29921 840 294 835.29921 294 829.5 C 294 823.70108 289.29921 819 283.5 819 z M 325.5 819 C 319.70108 819 315 823.70108 315 829.5 C 315 835.29921 319.70108 840 325.5 840 C 331.29921 840 336 835.29921 336 829.5 C 336 823.70108 331.29921 819 325.5 819 z M 451.5 819 C 445.70108 819 441 823.70108 441 829.5 C 441 835.29921 445.70108 840 451.5 840 C 457.29921 840 462 835.29921 462 829.5 C 462 823.70108 457.29921 819 451.5 819 z M 493.5 819 C 487.70129 819 483.00025 823.70137 483 829.5 L 483 840 C 471.40218 840.00004 462 849.40189 462 861 L 451.5 861 C 445.69902 861 441 865.70247 441 871.5 C 441 877.29686 445.69902 882 451.5 882 L 462 882 L 483 882 C 494.59794 882 504 872.59794 504 861 L 504 840 L 504 829.5 C 504 823.70108 499.29892 819 493.5 819 z M 535.5 819 C 529.70108 819 525 823.70108 525 829.5 C 525 835.29921 529.70108 840 535.5 840 C 541.29921 840 546 835.29921 546 829.5 C 546 823.70108 541.29921 819 535.5 819 z M 577.5 819 C 571.70129 819 567.00025 823.70137 567 829.5 L 567 840 L 567 861 C 555.40218 861.00004 546 870.40189 546 882 L 525 882 C 513.40218 882.00004 504 891.40189 504 903 L 504 924 L 504 945 L 483 945 L 462 945 C 462 933.40185 452.59794 924 441 924 L 420 924 L 409.5 924 C 403.69902 924 399 928.70247 399 934.5 C 399 940.29686 403.69902 945 409.5 945 L 420 945 C 420.00004 956.59794 429.40185 966 441 966 L 462 966 L 483 966 C 483.00004 977.59794 492.40185 987 504 987 C 504.00004 998.59794 513.40185 1008 525 1008 C 525.00004 1019.598 534.40185 1029 546 1029 C 546.00004 1040.598 555.40185 1050 567 1050 C 567.00004 1061.598 576.40185 1071 588 1071 L 609 1071 C 620.59794 1071 630 1061.598 630 1050 L 630 1029 C 641.59794 1029 651 1019.598 651 1008 L 651 987 L 651 976.5 C 651 970.70108 646.29892 966 640.5 966 C 634.70129 966 630.00025 970.70137 630 976.5 L 630 987 C 618.40218 987.00004 609 996.40189 609 1008 C 597.40218 1008 588 1017.4019 588 1029 L 567 1029 L 567 1008 C 578.59794 1008 588 998.59794 588 987 C 599.59794 987 609 977.59794 609 966 L 609 945 L 630 945 L 651 945 C 662.59794 945 672 935.59794 672 924 L 672 913.5 C 672 907.70108 667.29892 903 661.5 903 C 655.70129 903 651.00025 907.70137 651 913.5 L 651 924 L 630 924 L 630 903 C 630 891.40185 620.59794 882 609 882 C 609 870.40185 599.59794 861 588 861 L 588 840 L 588 829.5 C 588 823.70108 583.29892 819 577.5 819 z M 766.5 819 C 760.70129 819 756.00025 823.70137 756 829.5 L 756 840 L 756 861 C 744.40218 861.00004 735 870.40189 735 882 L 724.5 882 C 718.69902 882 714 886.70247 714 892.5 C 714 898.29686 718.69902 903 724.5 903 L 735 903 L 735 913.5 C 735 919.29867 739.70104 924 745.5 924 C 751.29867 924 756 919.29867 756 913.5 L 756 903 L 756 882 C 767.59794 882 777 872.59794 777 861 L 777 840 L 777 829.5 C 777 823.70108 772.29892 819 766.5 819 z M 829.5 819 C 823.70129 819 819.00025 823.70137 819 829.5 L 819 840 L 808.5 840 C 802.69902 840 798 844.70247 798 850.5 C 798 856.29686 802.69902 861 808.5 861 L 819 861 C 830.59794 861 840 851.59794 840 840 L 840 829.5 C 840 823.70108 835.29892 819 829.5 819 z M 157.5 840 C 151.69902 840 147 844.70247 147 850.5 C 147 856.29686 151.69902 861 157.5 861 L 168 861 L 189 861 L 189 871.5 C 189 877.29867 193.70104 882 199.5 882 C 205.29867 882 210 877.29867 210 871.5 L 210 861 C 210 849.40185 200.59794 840 189 840 L 168 840 L 157.5 840 z M 672 840 C 660.40218 840.00004 651 849.40189 651 861 L 640.5 861 C 634.69902 861 630 865.70247 630 871.5 C 630 877.29686 634.69902 882 640.5 882 L 651 882 L 672 882 L 672 892.5 C 672 898.29867 676.70104 903 682.5 903 C 688.29867 903 693 898.29867 693 892.5 L 693 882 L 693 861 C 693 849.40185 683.59794 840 672 840 z M 882 840 C 870.40218 840.00004 861 849.40189 861 861 L 850.5 861 C 844.69902 861 840 865.70247 840 871.5 C 840 877.29686 844.69902 882 850.5 882 L 861 882 L 882 882 L 882 903 L 882 924 C 870.40218 924.00004 861 933.40189 861 945 C 861.00004 956.59794 870.40185 966 882 966 C 882.00004 977.59794 891.40185 987 903 987 L 903 1008 L 903 1029 L 882 1029 L 882 1008 L 882 997.5 C 882 991.70108 877.29892 987 871.5 987 C 865.70129 987 861.00025 991.70137 861 997.5 L 861 1008 L 840 1008 L 819 1008 L 819 987 L 819 976.5 C 819 970.70108 814.29892 966 808.5 966 C 802.70129 966 798.00025 970.70137 798 976.5 L 798 987 C 786.40218 987.00004 777 996.40189 777 1008 C 777.00004 1019.598 786.40185 1029 798 1029 L 819 1029 L 840 1029 L 861 1029 L 861 1050 C 861.00004 1061.598 870.40185 1071 882 1071 C 893.59794 1071 903 1061.598 903 1050 C 914.59794 1050 924 1040.598 924 1029 C 935.59794 1029 945 1019.598 945 1008 C 956.59794 1008 966 998.59794 966 987 C 977.59794 987 987 977.59794 987 966 L 987 945 L 987 924 L 1008 924 L 1018.5 924 C 1024.2987 924 1029 919.29867 1029 913.5 C 1029 907.70104 1024.2987 903 1018.5 903 L 1008 903 L 987 903 L 987 882 L 987 861 L 987 850.5 C 987 844.70108 982.29892 840 976.5 840 C 970.70129 840 966.00025 844.70137 966 850.5 L 966 861 L 966 882 L 945 882 L 945 861 L 945 850.5 C 945 844.70108 940.29892 840 934.5 840 C 928.70129 840 924.00025 844.70137 924 850.5 L 924 861 L 903 861 C 903 849.40185 893.59794 840 882 840 z M 304.5 861 C 298.69902 861 294 865.70247 294 871.5 C 294 877.29686 298.69902 882 304.5 882 L 315 882 L 315 903 L 315 924 L 315 934.5 C 315 940.29867 319.70104 945 325.5 945 C 331.29867 945 336 940.29867 336 934.5 L 336 924 L 336 903 C 347.59794 903 357 893.59794 357 882 C 357 870.40185 347.59794 861 336 861 L 315 861 L 304.5 861 z M 178.5 882 C 172.70108 882 168 886.70108 168 892.5 C 168 898.29921 172.70108 903 178.5 903 C 184.29921 903 189 898.29921 189 892.5 C 189 886.70108 184.29921 882 178.5 882 z M 231 882 C 219.40218 882.00004 210 891.40189 210 903 C 210.00004 914.59794 219.40185 924 231 924 L 252 924 L 273 924 L 273 945 C 261.40218 945.00004 252 954.40189 252 966 L 241.5 966 C 235.69902 966 231 970.70247 231 976.5 C 231 982.29686 235.69902 987 241.5 987 L 252 987 L 252 1008 C 252.00004 1019.598 261.40185 1029 273 1029 L 294 1029 L 315 1029 L 315 1050 L 294 1050 L 283.5 1050 C 277.69902 1050 273 1054.7024 273 1060.5 C 273 1066.2969 277.69902 1071 283.5 1071 L 294 1071 L 315 1071 C 326.59794 1071 336 1061.598 336 1050 L 336 1029 L 357 1029 L 357 1050 C 357.00004 1061.598 366.40185 1071 378 1071 L 388.5 1071 C 394.29867 1071 399 1066.2987 399 1060.5 C 399 1054.701 394.29867 1050 388.5 1050 L 378 1050 L 378 1029 C 389.59794 1029 399 1019.598 399 1008 L 399 987 L 399 966 C 399 954.40185 389.59794 945 378 945 C 366.40218 945.00004 357 954.40189 357 966 C 357.00004 977.59794 366.40185 987 378 987 L 378 1008 L 357 1008 L 357 997.5 C 357 991.70108 352.29892 987 346.5 987 C 340.70129 987 336.00025 991.70137 336 997.5 L 336 1008 L 315 1008 L 315 997.5 C 315 991.70108 310.29892 987 304.5 987 C 298.70129 987 294.00025 991.70137 294 997.5 L 294 1008 L 273 1008 L 273 987 L 273 966 C 284.59794 966 294 956.59794 294 945 L 294 924 C 294 912.40185 284.59794 903 273 903 L 252 903 C 252 891.40185 242.59794 882 231 882 z M 787.5 882 C 781.69902 882 777 886.70247 777 892.5 C 777 898.29686 781.69902 903 787.5 903 L 798 903 L 808.5 903 C 814.29867 903 819 898.29867 819 892.5 C 819 886.70104 814.29867 882 808.5 882 L 798 882 L 787.5 882 z M 367.5 903 C 361.69902 903 357 907.70247 357 913.5 C 357 919.29686 361.69902 924 367.5 924 L 378 924 L 388.5 924 C 394.29867 924 399 919.29867 399 913.5 C 399 907.70104 394.29867 903 388.5 903 L 378 903 L 367.5 903 z M 472.5 903 C 466.70108 903 462 907.70108 462 913.5 C 462 919.29921 466.70108 924 472.5 924 C 478.29921 924 483 919.29921 483 913.5 C 483 907.70108 478.29921 903 472.5 903 z M 525 903 L 546 903 L 567 903 L 588 903 L 588 924 L 588 945 L 588 966 L 567 966 L 546 966 L 525 966 L 525 945 L 525 924 L 525 903 z M 703.5 903 C 697.70108 903 693 907.70108 693 913.5 C 693 919.29921 697.70108 924 703.5 924 C 709.29921 924 714 919.29921 714 913.5 C 714 907.70108 709.29921 903 703.5 903 z M 829.5 903 C 823.69902 903 819 907.70247 819 913.5 C 819 919.29686 823.69902 924 829.5 924 L 840 924 L 850.5 924 C 856.29867 924 861 919.29867 861 913.5 C 861 907.70104 856.29867 903 850.5 903 L 840 903 L 829.5 903 z M 903 903 L 924 903 L 945 903 L 966 903 L 966 924 L 966 945 L 966 966 L 945 966 L 924 966 L 903 966 L 903 945 L 903 924 L 903 903 z M 1060.5 903 C 1054.7013 903 1050.0003 907.70137 1050 913.5 L 1050 924 L 1039.5 924 C 1033.699 924 1029 928.70247 1029 934.5 C 1029 940.29686 1033.699 945 1039.5 945 L 1050 945 L 1050 966 L 1050 987 L 1050 1008 L 1039.5 1008 C 1033.699 1008 1029 1012.7024 1029 1018.5 C 1029 1024.2969 1033.699 1029 1039.5 1029 L 1050 1029 C 1061.598 1029 1071 1019.598 1071 1008 L 1071 987 L 1071 966 L 1071 945 L 1071 924 L 1071 913.5 C 1071 907.70108 1066.299 903 1060.5 903 z M 556.5 924 C 550.70108 924 546 928.70108 546 934.5 C 546 940.29921 550.70108 945 556.5 945 C 562.29921 945 567 940.29921 567 934.5 C 567 928.70108 562.29921 924 556.5 924 z M 766.5 924 C 760.70129 924 756.00025 928.70137 756 934.5 L 756 945 L 756 966 L 745.5 966 C 739.69902 966 735 970.70247 735 976.5 C 735 982.29686 739.69902 987 745.5 987 L 756 987 C 767.59794 987 777 977.59794 777 966 L 787.5 966 C 793.29867 966 798 961.29867 798 955.5 C 798 949.70104 793.29867 945 787.5 945 L 777 945 L 777 934.5 C 777 928.70108 772.29892 924 766.5 924 z M 808.5 924 C 802.70108 924 798 928.70108 798 934.5 C 798 940.29921 802.70108 945 808.5 945 C 814.29921 945 819 940.29921 819 934.5 C 819 928.70108 814.29921 924 808.5 924 z M 934.5 924 C 928.70108 924 924 928.70108 924 934.5 C 924 940.29921 928.70108 945 934.5 945 C 940.29921 945 945 940.29921 945 934.5 C 945 928.70108 940.29921 924 934.5 924 z M 220.5 945 C 214.70108 945 210 949.70108 210 955.5 C 210 961.29921 214.70108 966 220.5 966 C 226.29921 966 231 961.29921 231 955.5 C 231 949.70108 226.29921 945 220.5 945 z M 703.5 945 C 697.69902 945 693 949.70247 693 955.5 C 693 961.29686 697.69902 966 703.5 966 L 714 966 L 724.5 966 C 730.29867 966 735 961.29867 735 955.5 C 735 949.70104 730.29867 945 724.5 945 L 714 945 L 703.5 945 z M 1018.5 945 C 1012.7013 945 1008.0003 949.70137 1008 955.5 L 1008 966 L 1008 976.5 C 1008 982.29867 1012.701 987 1018.5 987 C 1024.2987 987 1029 982.29867 1029 976.5 L 1029 966 L 1029 955.5 C 1029 949.70108 1024.299 945 1018.5 945 z M 220.5 987 C 214.70108 987 210 991.70108 210 997.5 C 210 1003.2992 214.70108 1008 220.5 1008 C 226.29921 1008 231 1003.2992 231 997.5 C 231 991.70108 226.29921 987 220.5 987 z M 430.5 987 C 424.70129 987 420.00025 991.70137 420 997.5 L 420 1008 C 420.00004 1019.598 429.40185 1029 441 1029 L 451.5 1029 C 457.29867 1029 462 1024.2987 462 1018.5 C 462 1012.701 457.29867 1008 451.5 1008 L 441 1008 L 441 997.5 C 441 991.70108 436.29892 987 430.5 987 z M 472.5 987 C 466.70108 987 462 991.70108 462 997.5 C 462 1003.2992 466.70108 1008 472.5 1008 C 478.29921 1008 483 1003.2992 483 997.5 C 483 991.70108 478.29921 987 472.5 987 z M 703.5 987 C 697.69902 987 693 991.70247 693 997.5 C 693 1003.2969 697.69902 1008 703.5 1008 L 714 1008 L 724.5 1008 C 730.29867 1008 735 1003.2987 735 997.5 C 735 991.70104 730.29867 987 724.5 987 L 714 987 L 703.5 987 z M 745.5 1008 C 739.70108 1008 735 1012.7011 735 1018.5 C 735 1024.2992 739.70108 1029 745.5 1029 C 751.29921 1029 756 1024.2992 756 1018.5 C 756 1012.7011 751.29921 1008 745.5 1008 z M 987 1008 C 975.40218 1008 966 1017.4019 966 1029 L 966 1039.5 C 966 1045.2987 970.70104 1050 976.5 1050 C 982.29867 1050 987 1045.2987 987 1039.5 L 987 1029 L 997.5 1029 C 1003.2987 1029 1008 1024.2987 1008 1018.5 C 1008 1012.701 1003.2987 1008 997.5 1008 L 987 1008 z M 409.5 1029 C 403.70108 1029 399 1033.7011 399 1039.5 C 399 1045.2992 403.70108 1050 409.5 1050 C 415.29921 1050 420 1045.2992 420 1039.5 C 420 1033.7011 415.29921 1029 409.5 1029 z M 504 1029 C 492.40218 1029 483 1038.4019 483 1050 C 483.00004 1061.598 492.40185 1071 504 1071 C 515.59794 1071 525 1061.598 525 1050 C 525 1038.4018 515.59794 1029 504 1029 z M 661.5 1029 C 655.69902 1029 651 1033.7024 651 1039.5 C 651 1045.2969 655.69902 1050 661.5 1050 L 672 1050 L 693 1050 L 693 1060.5 C 693 1066.2987 697.70104 1071 703.5 1071 C 709.29867 1071 714 1066.2987 714 1060.5 L 714 1050 L 724.5 1050 C 730.29867 1050 735 1045.2987 735 1039.5 C 735 1033.701 730.29867 1029 724.5 1029 L 714 1029 L 693 1029 L 672 1029 L 661.5 1029 z M 766.5 1029 C 760.70108 1029 756 1033.7011 756 1039.5 C 756 1045.2992 760.70108 1050 766.5 1050 C 772.29921 1050 777 1045.2992 777 1039.5 C 777 1033.7011 772.29921 1029 766.5 1029 z M 220.5 1050 C 214.70108 1050 210 1054.7011 210 1060.5 C 210 1066.2992 214.70108 1071 220.5 1071 C 226.29921 1071 231 1066.2992 231 1060.5 C 231 1054.7011 226.29921 1050 220.5 1050 z M 430.5 1050 C 424.69902 1050 420 1054.7024 420 1060.5 C 420 1066.2969 424.69902 1071 430.5 1071 L 441 1071 L 451.5 1071 C 457.29867 1071 462 1066.2987 462 1060.5 C 462 1054.701 457.29867 1050 451.5 1050 L 441 1050 L 430.5 1050 z M 787.5 1050 C 781.70108 1050 777 1054.7011 777 1060.5 C 777 1066.2992 781.70108 1071 787.5 1071 C 793.29921 1071 798 1066.2992 798 1060.5 C 798 1054.7011 793.29921 1050 787.5 1050 z M 934.5 1050 C 928.70108 1050 924 1054.7011 924 1060.5 C 924 1066.2992 928.70108 1071 934.5 1071 C 940.29921 1071 945 1066.2992 945 1060.5 C 945 1054.7011 940.29921 1050 934.5 1050 z M 1018.5 1050 C 1012.699 1050 1008 1054.7024 1008 1060.5 C 1008 1066.2969 1012.699 1071 1018.5 1071 L 1029 1071 L 1050 1071 L 1060.5 1071 C 1066.2987 1071 1071 1066.2987 1071 1060.5 C 1071 1054.701 1066.2987 1050 1060.5 1050 L 1050 1050 L 1029 1050 L 1018.5 1050 z " /><g
   transform="matrix(1.47,0,0,1.47,42,42)"
   id="g7340"><g
     transform="matrix(-1,0,0,1,100,0)"
     style="fill:#ffffff"
     id="g7338">
<g
   id="g7336">
	<path
   style="fill:none"
   d="M 85,66.221 V 33.75 C 85,23.411 76.414,15 65.859,15 H 34.14 C 23.586,15 15,23.411 15,33.75 V 84.996 L 65.855,84.98 C 76.414,84.98 85,76.564 85,66.221 Z"
   id="path7332" />
	<path
   d="M 100,66.221 V 33.75 C 100,15.141 84.68,0 65.859,0 H 34.14 C 15.32,0 0,15.141 0,33.75 V 100 L 65.859,99.98 C 84.68,99.98 100,84.84 100,66.221 Z m -15,0 c 0,10.344 -8.586,18.76 -19.145,18.76 L 15,84.996 V 33.75 C 15,23.411 23.586,15 34.14,15 H 65.859 C 76.414,15 85,23.411 85,33.75 Z"
   id="path7334" />
</g>
</g></g><g
   transform="matrix(1.47,0,0,1.47,924,42)"
   id="g7350"><g
     style="fill:#ffffff"
     id="g7348">
<g
   id="g7346">
	<path
   style="fill:none"
   d="M 85,66.221 V 33.75 C 85,23.411 76.414,15 65.859,15 H 34.14 C 23.586,15 15,23.411 15,33.75 V 84.996 L 65.855,84.98 C 76.414,84.98 85,76.564 85,66.221 Z"
   id="path7342" />
	<path
   d="M 100,66.221 V 33.75 C 100,15.141 84.68,0 65.859,0 H 34.14 C 15.32,0 0,15.141 0,33.75 V 100 L 65.859,99.98 C 84.68,99.98 100,84.84 100,66.221 Z m -15,0 c 0,10.344 -8.586,18.76 -19.145,18.76 L 15,84.996 V 33.75 C 15,23.411 23.586,15 34.14,15 H 65.859 C 76.414,15 85,23.411 85,33.75 Z"
   id="path7344" />
</g>
</g></g><path
   style="fill:none;stroke-width:1.47"
   d="m 64.05,973.65513 v 47.73237 c 0,15.1983 12.62142,27.5625 28.13727,27.5625 h 46.62693 c 15.51438,0 28.1358,-12.3642 28.1358,-27.5625 v -75.33162 l -74.75685,0.0235 c -15.52173,0 -28.14315,12.37152 -28.14315,27.57573 z"
   id="path7352" /><path
   d="m 42,973.65513 v 47.73237 C 42,1048.7427 64.5204,1071 92.18727,1071 H 138.8142 C 166.4796,1071 189,1048.7427 189,1021.3875 V 924 l -96.81273,0.0294 C 64.5204,924.0294 42,946.2852 42,973.65513 Z m 22.05,0 c 0,-15.20568 12.62142,-27.5772 28.14315,-27.5772 l 74.75685,-0.0221 v 75.33167 c 0,15.1983 -12.62142,27.5625 -28.1358,27.5625 H 92.18727 C 76.67142,1048.95 64.05,1036.5858 64.05,1021.3875 Z"
   id="path7354"
   style="fill:#ffffff;stroke-width:1.47" /><g
   transform="matrix(0.63,0,0,0.63,84,84)"
   id="g7366"><g
     transform="matrix(-1,0,0,1,100,0)"
     style="fill:#ffffff"
     id="g7364">
<path
   d="M 100,72.779 V 27.195 C 100,12.203 87.604,0 72.37,0 H 27.63 C 12.397,0 0,12.203 0,27.195 V 100 L 72.37,99.958 C 87.604,99.958 100,87.771 100,72.779 Z"
   id="path7362" />
</g></g><g
   transform="matrix(0.63,0,0,0.63,966,84)"
   id="g7372"><g
     style="fill:#ffffff"
     id="g7370">
<path
   d="M 100,72.779 V 27.195 C 100,12.203 87.604,0 72.37,0 H 27.63 C 12.397,0 0,12.203 0,27.195 V 100 L 72.37,99.958 C 87.604,99.958 100,87.771 100,72.779 Z"
   id="path7368" />
</g></g><path
   d="m 84,983.14923 v 28.71797 c 0,9.4449 7.80948,17.1328 17.4069,17.1328 h 28.1862 C 139.18989,1029 147,1021.3121 147,1011.8672 V 966 l -45.5931,0.0265 C 91.80948,966.02646 84,973.70427 84,983.14923 Z"
   id="path7374"
   style="fill:#ffffff;stroke-width:0.63" /></svg>
